<svg width="16" height="16" viewBox="0 0 16 16" version="1.1" xmlns="http://www.w3.org/2000/svg" xmlns:xlink="http://www.w3.org/1999/xlink">
<title>Facebook Search</title>
<desc>Created using Figma</desc>
<g id="Canvas" transform="translate(516 1843)">
<g id="Facebook Search">
<use xlink:href="#path0_fill" transform="translate(-516 -1843)" fill="#919291"/>
</g>
</g>
<defs>
<path id="path0_fill" fill-rule="evenodd" d="M 11.2504 1.93629C 8.67455 -0.644149 4.502 -0.645614 1.92851 1.933C -0.644485 4.51064 -0.642593 8.69057 1.93272 11.271C 4.26085 13.6037 7.89629 13.8285 10.4735 11.9435L 13.5724 15.5703L 13.5795 15.5632C 13.585 15.569 13.5905 15.5746 13.5961 15.5802C 14.1492 16.137 15.0421 16.1403 15.591 15.5877C 16.1394 15.0352 16.1361 14.1359 15.583 13.5786C 15.5131 13.5083 15.4378 13.4468 15.3584 13.3942L 11.9349 10.4741C 13.8018 7.8932 13.5736 4.26369 11.2504 1.93629ZM 9.91252 3.26576C 8.07201 1.42604 5.09087 1.42506 3.25218 3.26296C 1.4135 5.10036 1.41539 8.07912 3.25499 9.91847C 5.09465 11.7569 8.07622 11.7577 9.9149 9.92079C 11.7531 8.08339 11.7526 5.10463 9.91252 3.26576Z"/>
</defs>
</svg>
